<svg preserveAspectRatio="none" width="100%" height="100%" overflow="visible" style="display: block;" viewBox="0 0 22.0312 18" fill="none" xmlns="http://www.w3.org/2000/svg">
<g id="Container">
<path id="Icon" d="M12.2812 7.5C12.2812 6.79688 12.8438 6.23438 13.5 6.23438C14.2031 6.23438 14.7656 6.79688 14.7656 7.5C14.7656 8.20312 14.2031 8.76562 13.5 8.76562C12.8438 8.76562 12.2812 8.20312 12.2812 7.5V7.5M7.26562 7.5C7.26562 6.79688 7.82812 6.23438 8.53125 6.23438C9.1875 6.23438 9.75 6.79688 9.75 7.5C9.75 8.20312 9.1875 8.76562 8.53125 8.76562C7.82812 8.76562 7.26562 8.20312 7.26562 7.5V7.5M15.0938 11.0156H6.9375C6.70312 11.0156 6.60938 11.2031 6.70312 11.3906C7.5 12.9375 9.14062 14.0156 11.0156 14.0156C12.8906 14.0156 14.5312 12.9375 15.3281 11.3906C15.4219 11.2031 15.2812 11.0156 15.0938 11.0156V11.0156M21.9375 8.34375C21.7031 6.84375 20.5781 5.57812 19.125 5.15625C18.6094 4.03125 17.8594 3.04688 16.9688 2.25C15.375 0.84375 13.3125 0 11.0156 0C8.71875 0 6.65625 0.84375 5.0625 2.25C4.17188 3.04688 3.42188 4.07812 2.90625 5.15625C1.45312 5.57812 0.328125 6.79688 0.09375 8.34375C0.046875 8.53125 0 8.76562 0 9C0 9.23438 0.046875 9.46875 0.09375 9.65625C0.328125 11.1562 1.45312 12.4219 2.90625 12.8438C3.42188 13.9219 4.17188 14.9062 5.0625 15.7031C6.65625 17.1562 8.71875 18 11.0156 18C13.3125 18 15.375 17.1562 16.9688 15.7031C17.9062 14.9062 18.6562 13.9219 19.1719 12.8438C20.5781 12.4219 21.7031 11.2031 21.9375 9.65625C21.9844 9.46875 22.0312 9.23438 22.0312 9C22.0312 8.76562 21.9844 8.53125 21.9375 8.34375V8.34375M18 11.0156C17.9062 11.0156 17.8125 10.9688 17.7188 10.9688C17.5312 11.625 17.25 12.2812 16.875 12.8438C15.6094 14.7188 13.4531 15.9844 11.0156 15.9844C8.57812 15.9844 6.42188 14.7188 5.15625 12.8438C4.78125 12.2812 4.5 11.625 4.3125 10.9688C4.21875 10.9688 4.125 11.0156 4.03125 11.0156C2.90625 11.0156 2.01562 10.0781 2.01562 9C2.01562 7.92188 2.90625 6.98438 4.03125 6.98438C4.125 6.98438 4.21875 7.03125 4.3125 7.03125C4.5 6.375 4.78125 5.71875 5.15625 5.15625C6.42188 3.28125 8.57812 2.01562 11.0156 2.01562C13.4531 2.01562 15.6094 3.28125 16.875 5.15625C17.25 5.71875 17.5312 6.375 17.7188 7.03125C17.8125 7.03125 17.9062 6.98438 18 6.98438C19.125 6.98438 20.0156 7.92188 20.0156 9C20.0156 10.0781 19.125 11.0156 18 11.0156V11.0156" fill="var(--fill-0, #7C4DFF)"/>
</g>
</svg>
